<?xml version="1.0" encoding="utf-8"?>
<!-- Generator: Adobe Illustrator 17.0.0, SVG Export Plug-In . SVG Version: 6.00 Build 0)  -->
<!DOCTYPE svg PUBLIC "-//W3C//DTD SVG 1.1//EN" "http://www.w3.org/Graphics/SVG/1.1/DTD/svg11.dtd">
<svg version="1.1" xmlns="http://www.w3.org/2000/svg" xmlns:xlink="http://www.w3.org/1999/xlink" x="0px" y="0px" width="674px"
	 height="566px" viewBox="0 0 674 566" enable-background="new 0 0 674 566" xml:space="preserve">
<g id="Layer_6" display="none">
	<rect display="inline" width="674" height="566"/>
</g>
<g id="logo">
	<g>
		<g>
			<g>
				<path fill="#85734C" d="M532.721,94.349v95.582H139.465V94.349H532.721 M149.465,179.93h1h371.255h1v-1v-73.582v-1h-1H150.465
					h-1v1v73.582V179.93 M533.721,93.349H138.465v97.582h395.255V93.349L533.721,93.349z M150.465,178.93v-73.582h371.255v73.582
					H150.465L150.465,178.93z"/>
			</g>
		</g>
		<g>
			<polygon fill="#85734C" points="534,403 272,403 272,348 522,348 522,317 272,317 272,305 534,305 534,360 284,360 284,391 
				534,391 			"/>
		</g>
		<g>
			<polygon fill="#85734C" points="533.721,463.931 138.465,463.931 138.465,235.349 533.721,235.349 533.721,247.349 
				150.465,247.349 150.465,451.931 533.721,451.931 			"/>
		</g>
		<g>
			<rect x="234" y="241" fill="#85734C" width="12" height="217"/>
		</g>
	</g>
</g>
</svg>
