<svg xmlns="http://www.w3.org/2000/svg" width="674" height="566" viewBox="0 0 674 566"><path fill="#85734C" d="M533.721 190.93H138.465V93.349H533.72v97.581zm-383.256-12H521.72v-73.582H150.465v73.582zM534 403H272v-55h250v-31H272v-12h262v55H284v31h250z"/><path fill="#85734C" d="M533.721 463.931H138.465V235.349h395.256v12H150.465v204.582h383.256z"/><path fill="#85734C" d="M234 241h12v217h-12z"/><g><path fill="#85734C" d="M534 403H272v-55h250v-31H272v-12h262v55H284v31h250z"/><path fill="#85734C" d="M533.721 463.931H138.465V235.349h395.256v12H150.465v204.582h383.256z"/><path fill="#85734C" d="M234 241h12v217h-12z"/></g></svg>